<svg width="44" height="44" viewBox="0 0 44 44" fill="none" xmlns="http://www.w3.org/2000/svg">
<rect x="0.5" y="0.5" width="43" height="43" rx="21.5" fill="white"/>
<rect x="0.5" y="0.5" width="43" height="43" rx="21.5" stroke="#E4E4E4"/>
<path d="M22 24C24.206 24 26 22.206 26 20C26 17.794 24.206 16 22 16C19.794 16 18 17.794 18 20C18 22.206 19.794 24 22 24ZM22 18C23.103 18 24 18.897 24 20C24 21.103 23.103 22 22 22C20.897 22 20 21.103 20 20C20 18.897 20.897 18 22 18Z" fill="#666666"/>
<path d="M21.4201 31.814C21.5894 31.9346 21.7922 31.9994 22.0001 31.9994C22.208 31.9994 22.4107 31.9346 22.5801 31.814C22.8841 31.599 30.0291 26.44 30.0001 20C30.0001 15.589 26.4111 12 22.0001 12C17.5891 12 14.0001 15.589 14.0001 19.995C13.9711 26.44 21.1161 31.599 21.4201 31.814ZM22.0001 14C25.3091 14 28.0001 16.691 28.0001 20.005C28.0211 24.443 23.6121 28.428 22.0001 29.735C20.3891 28.427 15.9791 24.441 16.0001 20C16.0001 16.691 18.6911 14 22.0001 14Z" fill="#666666"/>
</svg>
