<svg width="44" height="44" viewBox="0 0 44 44" fill="none" xmlns="http://www.w3.org/2000/svg">
<rect x="0.5" y="0.5" width="43" height="43" rx="21.5" fill="white"/>
<rect x="0.5" y="0.5" width="43" height="43" rx="21.5" stroke="#E4E4E4"/>
<path d="M22 12C21.0111 12 20.0444 12.2932 19.2221 12.8427C18.3999 13.3921 17.759 14.173 17.3806 15.0866C17.0022 16.0002 16.9031 17.0055 17.0961 17.9755C17.289 18.9454 17.7652 19.8363 18.4645 20.5355C19.1637 21.2348 20.0546 21.711 21.0245 21.9039C21.9945 22.0969 22.9998 21.9978 23.9134 21.6194C24.827 21.241 25.6079 20.6001 26.1573 19.7779C26.7068 18.9556 27 17.9889 27 17C27 15.6739 26.4732 14.4021 25.5355 13.4645C24.5979 12.5268 23.3261 12 22 12ZM22 20C21.4067 20 20.8266 19.8241 20.3333 19.4944C19.8399 19.1648 19.4554 18.6962 19.2284 18.1481C19.0013 17.5999 18.9419 16.9967 19.0576 16.4147C19.1734 15.8328 19.4591 15.2982 19.8787 14.8787C20.2982 14.4591 20.8328 14.1734 21.4147 14.0576C21.9967 13.9419 22.5999 14.0013 23.1481 14.2284C23.6962 14.4554 24.1648 14.8399 24.4944 15.3333C24.8241 15.8266 25 16.4067 25 17C25 17.7956 24.6839 18.5587 24.1213 19.1213C23.5587 19.6839 22.7956 20 22 20ZM31 31V30C31 28.1435 30.2625 26.363 28.9497 25.0503C27.637 23.7375 25.8565 23 24 23H20C18.1435 23 16.363 23.7375 15.0503 25.0503C13.7375 26.363 13 28.1435 13 30V31H15V30C15 28.6739 15.5268 27.4021 16.4645 26.4645C17.4021 25.5268 18.6739 25 20 25H24C25.3261 25 26.5979 25.5268 27.5355 26.4645C28.4732 27.4021 29 28.6739 29 30V31H31Z" fill="#666666"/>
</svg>
