<svg width="44" height="44" viewBox="0 0 44 44" fill="none" xmlns="http://www.w3.org/2000/svg">
<rect x="0.5" y="0.5" width="43" height="43" rx="21.5" fill="white"/>
<rect x="0.5" y="0.5" width="43" height="43" rx="21.5" stroke="#E4E4E4"/>
<path d="M30.145 18.27L31.708 16.707L30.294 15.293L28.586 17C27.536 16.37 26.312 16 25 16C21.141 16 18 19.14 18 23C18 26.86 21.141 30 25 30C28.859 30 32 26.86 32 23C31.9988 21.2461 31.3364 19.5571 30.145 18.27ZM25 28C22.243 28 20 25.757 20 23C20 20.243 22.243 18 25 18C27.757 18 30 20.243 30 23C30 25.757 27.757 28 25 28Z" fill="#666666"/>
<path d="M24 20H26V24H24V20ZM23 13H27V15H23V13ZM13 18H17V20H13V18ZM13 26H17V28H13V26ZM12 22H15.99V24H12V22Z" fill="#666666"/>
</svg>
