<svg width="44" height="44" viewBox="0 0 44 44" fill="none" xmlns="http://www.w3.org/2000/svg">
<rect x="0.5" y="0.5" width="43" height="43" rx="21.5" fill="white"/>
<rect x="0.5" y="0.5" width="43" height="43" rx="21.5" stroke="#E4E4E4"/>
<path d="M22 18C19.832 18 18 19.832 18 22C18 24.168 19.832 26 22 26C24.168 26 26 24.168 26 22C26 19.832 24.168 18 22 18ZM22 24C20.935 24 20 23.065 20 22C20 20.935 20.935 20 22 20C23.065 20 24 20.935 24 22C24 23.065 23.065 24 22 24Z" fill="#666666"/>
<path d="M30 15H27.414L24.707 12.293C24.5195 12.1055 24.2652 12.0001 24 12H20C19.7348 12.0001 19.4805 12.1055 19.293 12.293L16.586 15H14C12.897 15 12 15.897 12 17V28C12 29.103 12.897 30 14 30H30C31.103 30 32 29.103 32 28V17C32 15.897 31.103 15 30 15ZM14 28V17H17C17.266 17 17.52 16.895 17.707 16.707L20.414 14H23.586L26.293 16.707C26.4805 16.8945 26.7348 16.9999 27 17H30L30.002 28H14Z" fill="#666666"/>
</svg>
