<svg width="44" height="44" viewBox="0 0 44 44" fill="none" xmlns="http://www.w3.org/2000/svg">
<rect x="0.5" y="0.5" width="43" height="43" rx="21.5" fill="white"/>
<rect x="0.5" y="0.5" width="43" height="43" rx="21.5" stroke="#E4E4E4"/>
<path d="M30 13H14C13.4696 13 12.9609 13.2107 12.5858 13.5858C12.2107 13.9609 12 14.4696 12 15V17C12.0021 17.349 12.0955 17.6914 12.2709 17.9932C12.4464 18.2949 12.6977 18.5455 13 18.72V29C13 29.5304 13.2107 30.0391 13.5858 30.4142C13.9609 30.7893 14.4696 31 15 31H29C29.5304 31 30.0391 30.7893 30.4142 30.4142C30.7893 30.0391 31 29.5304 31 29V18.72C31.3023 18.5455 31.5536 18.2949 31.7291 17.9932C31.9045 17.6914 31.9979 17.349 32 17V15C32 14.4696 31.7893 13.9609 31.4142 13.5858C31.0391 13.2107 30.5304 13 30 13ZM14 15H30V17H14V15ZM15 29V19H29V29H15Z" fill="#666666"/>
<path d="M18 21H26V23H18V21Z" fill="#666666"/>
</svg>
