<svg width="44" height="44" viewBox="0 0 44 44" fill="none" xmlns="http://www.w3.org/2000/svg">
<rect x="0.5" y="0.5" width="43" height="43" rx="21.5" fill="white"/>
<rect x="0.5" y="0.5" width="43" height="43" rx="21.5" stroke="#E4E4E4"/>
<path d="M31 14H13C12.7348 14 12.4804 14.1054 12.2929 14.2929C12.1054 14.4804 12 14.7348 12 15V29C12 29.2652 12.1054 29.5196 12.2929 29.7071C12.4804 29.8946 12.7348 30 13 30H31C31.2652 30 31.5196 29.8946 31.7071 29.7071C31.8946 29.5196 32 29.2652 32 29V15C32 14.7348 31.8946 14.4804 31.7071 14.2929C31.5196 14.1054 31.2652 14 31 14ZM30 25C29.2044 25 28.4413 25.3161 27.8787 25.8787C27.3161 26.4413 27 27.2044 27 28H17C17 27.2044 16.6839 26.4413 16.1213 25.8787C15.5587 25.3161 14.7956 25 14 25V19C14.7956 19 15.5587 18.6839 16.1213 18.1213C16.6839 17.5587 17 16.7956 17 16H27C27 16.7956 27.3161 17.5587 27.8787 18.1213C28.4413 18.6839 29.2044 19 30 19V25Z" fill="#666666"/>
<path d="M22 18C19.794 18 18 19.794 18 22C18 24.206 19.794 26 22 26C24.206 26 26 24.206 26 22C26 19.794 24.206 18 22 18ZM22 24C20.897 24 20 23.103 20 22C20 20.897 20.897 20 22 20C23.103 20 24 20.897 24 22C24 23.103 23.103 24 22 24Z" fill="#666666"/>
</svg>
